<svg width="166" height="48" viewBox="0 0 166 48" fill="none" xmlns="http://www.w3.org/2000/svg">
<path d="M1 24H57" stroke="#9E9E9E" stroke-width="1.5" stroke-linecap="round"/>
<rect x="59" width="48" height="48" rx="24" fill="#9E9E9E"/>
<path d="M84.3327 27.6667H69.666C69.1193 27.6667 68.666 27.2134 68.666 26.6667V16.0001C68.666 12.5067 71.506 9.66675 74.9993 9.66675H86.9993C87.546 9.66675 87.9993 10.1201 87.9993 10.6667V24.0001C87.9993 26.0267 86.3593 27.6667 84.3327 27.6667ZM70.666 25.6667H84.3327C85.2527 25.6667 85.9993 24.9201 85.9993 24.0001V11.6667H74.9993C72.6127 11.6667 70.666 13.6134 70.666 16.0001V25.6667Z" fill="white"/>
<path d="M92.3327 35.6667H90.9993C90.4527 35.6667 89.9993 35.2134 89.9993 34.6667C89.9993 33.7467 89.2527 33.0001 88.3327 33.0001C87.4127 33.0001 86.666 33.7467 86.666 34.6667C86.666 35.2134 86.2127 35.6667 85.666 35.6667H80.3327C79.786 35.6667 79.3327 35.2134 79.3327 34.6667C79.3327 33.7467 78.586 33.0001 77.666 33.0001C76.746 33.0001 75.9993 33.7467 75.9993 34.6667C75.9993 35.2134 75.546 35.6667 74.9993 35.6667H73.666C70.906 35.6667 68.666 33.4267 68.666 30.6667V26.6667C68.666 26.1201 69.1193 25.6667 69.666 25.6667H84.3327C85.2527 25.6667 85.9993 24.9201 85.9993 24.0001V14.6667C85.9993 14.1201 86.4527 13.6667 86.9993 13.6667H89.4527C90.7727 13.6667 91.986 14.3734 92.6394 15.5201L94.9194 19.5068C95.0927 19.8134 95.0927 20.2001 94.9194 20.5068C94.746 20.8134 94.4127 21.0001 94.0527 21.0001H92.3327C92.146 21.0001 91.9993 21.1467 91.9993 21.3334V25.3334C91.9993 25.5201 92.146 25.6667 92.3327 25.6667H96.3327C96.8793 25.6667 97.3327 26.1201 97.3327 26.6667V30.6667C97.3327 33.4267 95.0927 35.6667 92.3327 35.6667ZM91.866 33.6667H92.3327C93.986 33.6667 95.3327 32.3201 95.3327 30.6667V27.6667H92.3327C91.0527 27.6667 89.9993 26.6134 89.9993 25.3334V21.3334C89.9993 20.0534 91.0393 19.0001 92.3327 19.0001L90.906 16.5068C90.6127 15.9868 90.0527 15.6667 89.4527 15.6667H87.9993V24.0001C87.9993 26.0267 86.3593 27.6667 84.3327 27.6667H70.666V30.6667C70.666 32.3201 72.0127 33.6667 73.666 33.6667H74.1327C74.5727 32.1334 75.986 31.0001 77.666 31.0001C79.346 31.0001 80.7593 32.1334 81.1993 33.6667H84.8127C85.2527 32.1334 86.666 31.0001 88.346 31.0001C90.026 31.0001 91.426 32.1334 91.866 33.6667Z" fill="white"/>
<path d="M77.6667 38.3333C75.64 38.3333 74 36.6933 74 34.6667C74 32.64 75.64 31 77.6667 31C79.6933 31 81.3333 32.64 81.3333 34.6667C81.3333 36.6933 79.6933 38.3333 77.6667 38.3333ZM77.6667 33C76.7467 33 76 33.7467 76 34.6667C76 35.5867 76.7467 36.3333 77.6667 36.3333C78.5867 36.3333 79.3333 35.5867 79.3333 34.6667C79.3333 33.7467 78.5867 33 77.6667 33Z" fill="white"/>
<path d="M88.3327 38.3333C86.306 38.3333 84.666 36.6933 84.666 34.6667C84.666 32.64 86.306 31 88.3327 31C90.3593 31 91.9993 32.64 91.9993 34.6667C91.9993 36.6933 90.3593 38.3333 88.3327 38.3333ZM88.3327 33C87.4127 33 86.666 33.7467 86.666 34.6667C86.666 35.5867 87.4127 36.3333 88.3327 36.3333C89.2527 36.3333 89.9993 35.5867 89.9993 34.6667C89.9993 33.7467 89.2527 33 88.3327 33Z" fill="white"/>
<path d="M96.3333 27.6667H92.3333C91.0533 27.6667 90 26.6133 90 25.3333V21.3333C90 20.0533 91.0533 19 92.3333 19H94.0533C94.4133 19 94.7467 19.1867 94.92 19.5067L97.2 23.5067C97.28 23.6533 97.3333 23.8267 97.3333 24V26.6667C97.3333 27.2133 96.88 27.6667 96.3333 27.6667ZM92.3333 21C92.1467 21 92 21.1467 92 21.3333V25.3333C92 25.52 92.1467 25.6667 92.3333 25.6667H95.3333V24.2667L93.4667 21H92.3333Z" fill="white"/>
<path d="M109 24H165" stroke="#9E9E9E" stroke-width="1.5" stroke-linecap="round"/>
</svg>
