<svg width="107" height="48" viewBox="0 0 107 48" fill="none" xmlns="http://www.w3.org/2000/svg">
<path d="M1 24H57" stroke="#9E9E9E" stroke-width="1.5" stroke-linecap="round"/>
<rect x="59" width="48" height="48" rx="24" fill="#9E9E9E"/>
<path d="M96.3327 20.3333H69.666C69.1193 20.3333 68.666 19.8799 68.666 19.3333C68.666 18.7866 69.1193 18.3333 69.666 18.3333H96.3327C96.8793 18.3333 97.3327 18.7866 97.3327 19.3333C97.3327 19.8799 96.8793 20.3333 96.3327 20.3333Z" fill="white"/>
<path d="M77.6667 31H75C74.4533 31 74 30.5467 74 30C74 29.4533 74.4533 29 75 29H77.6667C78.2133 29 78.6667 29.4533 78.6667 30C78.6667 30.5467 78.2133 31 77.6667 31Z" fill="white"/>
<path d="M86.3333 31H81C80.4533 31 80 30.5467 80 30C80 29.4533 80.4533 29 81 29H86.3333C86.88 29 87.3333 29.4533 87.3333 30C87.3333 30.5467 86.88 31 86.3333 31Z" fill="white"/>
<path d="M90.4127 36.3334H75.586C70.2793 36.3334 68.666 34.7334 68.666 29.4801V18.5201C68.666 13.2667 70.2793 11.6667 75.586 11.6667H90.3993C95.706 11.6667 97.3193 13.2667 97.3193 18.5201V29.4667C97.3327 34.7334 95.7193 36.3334 90.4127 36.3334ZM75.586 13.6667C71.3993 13.6667 70.666 14.3867 70.666 18.5201V29.4667C70.666 33.6001 71.3993 34.3201 75.586 34.3201H90.3993C94.586 34.3201 95.3193 33.6001 95.3193 29.4667V18.5201C95.3193 14.3867 94.586 13.6667 90.3993 13.6667H75.586Z" fill="white"/>
</svg>
